<svg version="1.2" xmlns="http://www.w3.org/2000/svg" viewBox="0 0 1000 1000" width="1000" height="1000"><style>.a{fill:#2386ff;stroke:#fff;stroke-linecap:round;stroke-miterlimit:100;stroke-width:50;stroke-dasharray:200,150}.b{fill:#fff}</style><path fill-rule="evenodd" class="a" d="m500 973.2c-261.7 0-473.2-211.5-473.2-473.2 0-261.7 211.5-473.2 473.2-473.2 261.7 0 473.2 211.5 473.2 473.2 0 261.7-211.5 473.2-473.2 473.2z"/><path class="b" d="m569 615.3q0-25.9-18.5-40.5-18.3-14.5-64.5-30-46.2-15.5-75.5-30-95.5-46.9-95.5-129 0-40.8 23.6-71.8 23.9-31.4 67.5-48.6 43.5-17.6 97.8-17.6 53 0 94.8 18.9 42.2 18.9 65.4 54 23.3 34.8 23.3 79.7h-118.1q0-30.1-18.5-46.6-18.2-16.6-49.6-16.6-31.7 0-50.3 14.2-18.2 13.9-18.2 35.5 0 18.9 20.3 34.4 20.2 15.2 71.1 31.7 51 16.2 83.7 35.1 79.6 45.9 79.6 126.6 0 64.4-48.6 101.2-48.5 36.8-133.2 36.8-59.7 0-108.3-21.3-48.2-21.6-72.9-58.7-24.3-37.4-24.3-86h118.8q0 39.4 20.2 58.3 20.6 18.6 66.5 18.6 29.3 0 46.2-12.5 17.2-12.8 17.2-35.8z"/></svg>